# xmcd CD database file
# Copyright (C) 1993-1996 Ti Kan
#
# Track frame offsets:
# 150
# 15295
# 29065
# 42505
# 55980
# 66385
# 77837
# 94920
# 111957
# 121387
#
# Disc length: 1813 seconds
# Revision: 0
# Processed by: cddbd v1.4b41PL1 Copyright (c) Steve Scherf et al.
# Submitted via: CDSpectrumPro v3.2.327
#
DISCID=8907130a
DTITLE=George Jones - The Songs I Wanta Sing
DYEAR=1900
DGENRE=
TTITLE0=I Still Sing The Old Songs
TTITLE1=I'll Take You To My World
TTITLE2=She Loves Me ( Right Out Of My Mind )
TTITLE3=I'm Not Ready Yet
TTITLE4=The Race Is On
TTITLE5=Ain't Nobody Gonna Miss Me
TTITLE6=I Wanta Sing
TTITLE7=Bartender's Blues
TTITLE8=We Can Make It
TTITLE9=He Stopped Loving Her Today
EXTD=
EXTT0=
EXTT1=
EXTT2=
EXTT3=
EXTT4=
EXTT5=
EXTT6=
EXTT7=
EXTT8=
EXTT9=
PLAYORDER=
